/home/minht/3dpredictsim_tutorial/predsim_tutorial/Results/Case_16/GRF.mot
version=1
nRows=22
nColumns=19
inDegrees=yes
endheader 
time	r_ground_force_vx	r_ground_force_vy	r_ground_force_vz	r_ground_force_px	r_ground_force_py	r_ground_force_pz	l_ground_force_vx	l_ground_force_vy	l_ground_force_vz	l_ground_force_px	l_ground_force_py	l_ground_force_pz	r_ground_torque_x	r_ground_torque_y	r_ground_torque_z	l_ground_torque_x	l_ground_torque_y	l_ground_torque_z	
          0.55065634	          8.74403410	        917.32465975	        -20.88079733	          0.26065272	          0.00000000	          0.04576487	          0.00000000	          0.00000000	          0.00000000	          0.00000000	          0.00000000	          0.00000000	          0.00000000	          6.60606361	          0.00000000	          0.00000000	          0.00000000	          0.00000000	
          0.56734290	         11.75272723	        917.24101497	        -19.93412167	          0.26301386	          0.00000000	          0.04576581	          0.00000000	          0.00000000	          0.00000000	          0.00000000	          0.00000000	          0.00000000	          0.00000000	          6.81640082	          0.00000000	          0.00000000	          0.00000000	          0.00000000	
          0.58402945	         15.10190497	        916.24631217	        -19.10592068	          0.26538557	          0.00000000	          0.04575032	          0.00000000	          0.00000000	          0.00000000	          0.00000000	          0.00000000	          0.00000000	          0.00000000	          6.98794060	          0.00000000	          0.00000000	          0.00000000	          0.00000000	
          0.60071601	         18.83997526	        913.73438762	        -18.28635174	          0.26776360	          0.00000000	          0.04571870	          0.00000000	          0.00000000	          0.00000000	          0.00000000	          0.00000000	          0.00000000	          0.00000000	          7.11490827	          0.00000000	          0.00000000	          0.00000000	          0.00000000	
          0.61740256	         22.83485535	        909.41297412	        -17.33916001	          0.27015312	          0.00000000	          0.04567008	          0.00000000	          0.00000000	          0.00000000	          0.00000000	          0.00000000	          0.00000000	          0.00000000	          7.18614525	          0.00000000	          0.00000000	          0.00000000	          0.00000000	
          0.63408912	         26.91644546	        903.59811016	        -16.56509848	          0.27255866	          0.00000000	          0.04560163	          0.00000000	          0.00000000	          0.00000000	          0.00000000	          0.00000000	          0.00000000	          0.00000000	          7.21728668	          0.00000000	          0.00000000	          0.00000000	          0.00000000	
          0.65077568	         31.02552361	        896.94422812	        -15.86670625	          0.27495895	          0.00000000	          0.04551738	          0.00000000	          0.00000000	          0.00000000	          0.00000000	          0.00000000	          0.00000000	          0.00000000	          7.21794659	          0.00000000	          0.00000000	          0.00000000	          0.00000000	
          0.66746223	         35.16722412	        889.96592228	        -15.24006801	          0.27734907	          0.00000000	          0.04543090	          0.00000000	          0.00000000	          0.00000000	          0.00000000	          0.00000000	          0.00000000	          0.00000000	          7.16620196	          0.00000000	          0.00000000	          0.00000000	          0.00000000	
          0.68414879	         39.49251556	        883.18952414	        -14.69348475	          0.27974647	          0.00000000	          0.04536096	          0.00000000	          0.00000000	          0.00000000	          0.00000000	          0.00000000	          0.00000000	          0.00000000	          7.04453365	          0.00000000	          0.00000000	          0.00000000	          0.00000000	
          0.70083534	         44.28209638	        877.17861098	        -14.37643127	          0.28217433	          0.00000000	          0.04533361	          0.00000000	          0.00000000	          0.00000000	          0.00000000	          0.00000000	          0.00000000	          0.00000000	          6.84158177	          0.00000000	          0.00000000	          0.00000000	          0.00000000	
          0.71752190	         49.45888781	        871.38271536	        -14.27542449	          0.28454153	          0.00000000	          0.04538671	          0.00000000	          0.00000000	          0.00000000	          0.00000000	          0.00000000	          0.00000000	          0.00000000	          6.57272403	          0.00000000	          0.00000000	          0.00000000	          0.00000000	
          0.73420845	         55.31611286	        867.37935759	        -14.26861500	          0.28695896	          0.00000000	          0.04554284	          0.00000000	          0.00000000	          0.00000000	          0.00000000	          0.00000000	          0.00000000	          0.00000000	          6.23198845	          0.00000000	          0.00000000	          0.00000000	          0.00000000	
          0.75089501	         61.71328889	        866.58318250	        -14.58146357	          0.28960004	          0.00000000	          0.04582217	          0.00000000	          0.00000000	          0.00000000	          0.00000000	          0.00000000	          0.00000000	          0.00000000	          5.80610074	          0.00000000	          0.00000000	          0.00000000	          0.00000000	
          0.76758157	         68.35423646	        869.20657704	        -15.18938111	          0.29260302	          0.00000000	          0.04623898	          0.00000000	          0.00000000	          0.00000000	          0.00000000	          0.00000000	          0.00000000	          0.00000000	          5.33613259	          0.00000000	          0.00000000	          0.00000000	          0.00000000	
          0.78426812	         74.84017275	        874.53930418	        -16.16335618	          0.29611049	          0.00000000	          0.04678839	          0.00000000	          0.00000000	          0.00000000	          0.00000000	          0.00000000	          0.00000000	          0.00000000	          4.87472610	          0.00000000	          0.00000000	          0.00000000	          0.00000000	
          0.80095468	         80.71409558	        880.35653654	        -17.79168871	          0.30021439	          0.00000000	          0.04743409	          0.00000000	          0.00000000	          0.00000000	          0.00000000	          0.00000000	          0.00000000	          0.00000000	          4.56640949	          0.00000000	          0.00000000	          0.00000000	          0.00000000	
          0.81764123	         85.35883560	        883.93446596	        -19.81187978	          0.30498117	          0.00000000	          0.04811330	          0.00000000	          0.00000000	          0.00000000	          0.00000000	          0.00000000	          0.00000000	          0.00000000	          4.48647622	          0.00000000	          0.00000000	          0.00000000	          0.00000000	
          0.83432779	         88.17885399	        880.83998416	        -21.44650402	          0.31035913	          0.00000000	          0.04879897	          0.00000000	          0.00000000	          0.00000000	          0.00000000	          0.00000000	          0.00000000	          0.00000000	          4.51905623	          0.00000000	          0.00000000	          0.00000000	          0.00000000	
          0.85101434	         91.52530976	        863.22621998	        -20.99659712	          0.31630776	          0.00000000	          0.04947321	        -40.76683667	         38.47222241	        -10.71808898	          0.69913096	          0.00000000	         -0.05255411	          0.00000000	          4.50260431	          0.00000000	          0.00000000	          0.00000902	          0.00000000	
          0.86770090	         90.96091253	        829.00099516	        -18.04037322	          0.32298451	          0.00000000	          0.05005670	        -58.24042479	         98.84020989	        -27.21754629	          0.70525445	          0.00000000	         -0.05104140	          0.00000000	          4.20008256	          0.00000000	          0.00000000	          0.00042074	          0.00000000	
          0.88438746	         89.68347409	        781.20926006	        -14.66788635	          0.33001091	          0.00000000	          0.05061865	        -19.38529422	        208.51720443	        -14.03122516	          0.70854567	          0.00000000	         -0.04974956	          0.00000000	          3.44428725	          0.00000000	          0.00000000	          0.00387392	          0.00000000	
          0.90107401	         85.22199969	        728.01885138	        -11.73762039	          0.33644789	          0.00000000	          0.05096756	        -22.07788827	        321.73852380	         -2.15496104	          0.71036994	          0.00000000	         -0.04940689	          0.00000000	          2.32111829	          0.00000000	          0.00000000	          0.03181994	          0.00000000	
